<svg width="392" height="290" viewBox="0 0 392 290" fill="none" xmlns="http://www.w3.org/2000/svg">
<g clip-path="url(#clip0_161_445)">
<path opacity="0.18" d="M142.087 21.1368C131.785 30.6823 124.149 42.9523 113.203 51.7318C94.6937 66.6051 69.5719 69.5624 47.8049 79.0303C33.4067 85.2937 19.755 95.2174 13.3849 109.572C8.22192 121.173 8.89093 134.922 14.2382 146.416C16.7926 151.927 17.9276 157.989 17.5398 164.051C17.152 170.113 15.2537 175.981 12.0178 181.122C4.09152 193.678 -0.68849 208.023 0.0823234 222.756C1.2749 245.415 18.48 267.768 41.076 269.853C48.8327 270.57 56.6281 268.995 64.3071 267.589C110.687 259.105 159.777 256.914 203.892 273.537C215.983 278.094 227.623 284.033 240.193 287.029C254.878 290.529 270.187 289.865 285.279 289.181C308.83 288.115 336.307 284.818 348.335 264.535C365.007 236.417 338.45 201.313 342.227 168.852C344.316 150.915 355.626 135.14 358.011 117.256C360.6 97.8158 351.384 77.2656 335.144 66.2706C312.592 51.0047 281.405 54.7084 258.121 40.5768C239.699 29.3928 227.036 7.53851 205.318 1.59015C184.016 -4.23701 157.59 6.76284 142.087 21.1368Z" fill="#68E1FD"/>
<path d="M44.0771 216.414C41.7986 200.77 36.3641 185.708 34.1632 170.049C31.9622 154.391 33.4941 137.171 43.5244 124.94C50.0691 116.975 59.474 112.005 68.6704 107.347C76.8488 103.202 85.2696 99.0713 94.3642 97.9466C102.383 96.977 110.474 98.3587 118.492 99.3186C133.579 101.122 148.942 101.36 163.917 98.7902C183.468 95.4306 201.953 87.6691 221.059 82.3898C239.777 77.2219 258.305 74.5895 279.233 84.3289C293.7 91.0675 304.375 105.136 307.836 120.688C313.43 145.815 300.797 173.661 311.419 197.105C314.415 203.708 319.069 209.4 322.869 215.576C327.542 223.19 330.913 231.529 332.846 240.251C333.51 243.252 334 246.418 333.152 249.37C330.97 256.933 321.623 259.449 313.76 260.07C287.615 262.135 261.495 257.258 235.418 254.422C193.087 249.826 150.372 250.636 107.967 253.801C97.5864 254.577 87.2152 255.482 76.8536 256.516C68.491 257.335 52.6142 262.334 44.7315 259.953C35.9423 257.292 41.7113 251.528 43.5729 243.252C45.5751 234.492 45.3666 225.257 44.0771 216.414Z" fill="url(#paint0_linear_161_445)"/>
<path d="M186.154 66.5033C186.154 66.5033 182.145 82.8019 176.153 87.3492C169.967 92.042 163.548 83.0249 163.548 83.0249L159.98 89.4823C159.98 89.4823 166.588 100.148 173.249 100.395C179.91 100.642 185.756 94.6792 185.756 94.6792L186.154 66.5033Z" fill="#68E1FD"/>
<path d="M151.918 55.3095L152.825 54.9071L171.305 59.6047L176.856 97.0304H176.162L151.918 55.3095Z" fill="#3F3D56"/>
<path opacity="0.05" d="M64.5011 257.253C64.5011 257.253 24.191 259.953 18.3929 263.817C12.5948 267.681 58.0001 268.529 130.452 266.353C202.903 264.176 258.688 266.353 298.189 270.338C337.689 274.322 391.268 273.552 392.01 263.793C392.751 254.034 294.204 253.918 294.204 253.918L64.5011 257.253Z" fill="#000405"/>
<path d="M315.103 179.571C315.103 179.571 313.75 190.827 305.053 191.933H266.861L261.427 129.414H301.664C304.913 129.414 311.569 132.914 312.897 137.869C313.076 138.786 313.194 139.714 313.251 140.647C314.124 150.26 315.103 179.571 315.103 179.571Z" fill="#68E1FD"/>
<path d="M313.26 140.657H276.417L265.48 129.923L264.976 129.414H301.674C304.922 129.414 311.578 132.914 312.907 137.869C313.086 138.789 313.204 139.721 313.26 140.657Z" fill="url(#paint1_linear_161_445)"/>
<path d="M69.4315 135.232L65.8343 133.666C65.3662 133.462 64.9825 133.104 64.7479 132.65C64.5133 132.197 64.4421 131.676 64.5462 131.177C64.6504 130.677 64.9236 130.228 65.3198 129.906C65.716 129.585 66.211 129.409 66.7215 129.409H261.427C263.832 129.387 266.212 129.907 268.388 130.931C270.564 131.955 272.482 133.456 273.998 135.324C275.261 136.857 276.097 138.697 276.422 140.656C277.299 146.508 276.761 171.993 276.519 181.563C276.388 186.76 272.558 191.235 267.4 191.879L266.847 191.933H78.2643L69.4315 135.232Z" fill="#68E1FD"/>
<path d="M69.4315 135.232L65.8343 133.666C65.3662 133.462 64.9825 133.104 64.7479 132.65C64.5133 132.197 64.4421 131.676 64.5462 131.177C64.6504 130.677 64.9236 130.228 65.3198 129.906C65.716 129.585 66.211 129.409 66.7215 129.409H261.427C263.832 129.387 266.212 129.907 268.388 130.931C270.564 131.955 272.482 133.456 273.998 135.324C275.261 136.857 276.097 138.697 276.422 140.656C277.299 146.508 276.761 171.993 276.519 181.563C276.388 186.76 272.558 191.235 267.4 191.879L266.847 191.933H78.2643L69.4315 135.232Z" fill="#68E1FD"/>
<path d="M276.533 181.563C276.402 186.76 272.572 191.235 267.414 191.879L266.862 191.933H78.2789L69.4315 135.232L65.8343 133.666C65.3662 133.462 64.9825 133.104 64.7479 132.65C64.5133 132.197 64.4421 131.676 64.5462 131.177C64.6504 130.677 64.9236 130.228 65.3198 129.906C65.716 129.585 66.211 129.409 66.7215 129.409H261.427C263.832 129.387 266.212 129.907 268.388 130.931C270.564 131.955 272.482 133.456 273.998 135.324C275.261 136.857 276.097 138.697 276.422 140.656C277.314 146.508 276.776 171.993 276.533 181.563Z" fill="url(#paint2_linear_161_445)"/>
<path opacity="0.61" d="M59.6677 191.952H267.545C268.264 191.952 268.954 191.667 269.463 191.159C269.972 190.65 270.259 189.961 270.26 189.242C270.26 188.522 269.974 187.831 269.465 187.322C268.956 186.813 268.265 186.527 267.545 186.527H59.6677C58.9477 186.527 58.2572 186.813 57.748 187.322C57.2389 187.831 56.9529 188.522 56.9529 189.242C56.9542 189.961 57.2408 190.65 57.7497 191.159C58.2587 191.667 58.9485 191.952 59.6677 191.952Z" fill="url(#paint3_linear_161_445)"/>
<path d="M59.6677 191.952H267.545C268.264 191.952 268.954 191.667 269.463 191.159C269.972 190.65 270.259 189.961 270.26 189.242C270.26 188.522 269.974 187.831 269.465 187.322C268.956 186.813 268.265 186.527 267.545 186.527H59.6677C58.9477 186.527 58.2572 186.813 57.748 187.322C57.2389 187.831 56.9529 188.522 56.9529 189.242C56.9542 189.961 57.2408 190.65 57.7497 191.159C58.2587 191.667 58.9485 191.952 59.6677 191.952ZM310.202 209.763V243.674C310.202 245.865 309.771 248.035 308.933 250.059C308.095 252.084 306.866 253.923 305.317 255.473C303.768 257.022 301.929 258.252 299.905 259.09C297.881 259.929 295.711 260.361 293.52 260.361H74.2017C72.0097 260.364 69.8387 259.934 67.813 259.097C65.7873 258.259 63.9469 257.03 62.3972 255.48C60.8474 253.93 59.6189 252.089 58.782 250.063C57.9451 248.037 57.5163 245.866 57.5201 243.674V209.763C57.5166 206.681 58.3729 203.659 59.9925 201.037C60.3463 200.456 60.7382 199.899 61.1657 199.369C62.7262 197.409 64.7089 195.827 66.966 194.74C69.2231 193.653 71.6964 193.089 74.2017 193.091H293.52C295.711 193.091 297.881 193.523 299.906 194.362C301.931 195.201 303.77 196.431 305.319 197.981C306.868 199.531 308.097 201.371 308.935 203.396C309.772 205.421 310.203 207.591 310.202 209.783V209.763Z" fill="#68E1FD"/>
<path opacity="0.61" d="M224.796 260.361H74.2017C71.0033 260.362 67.8719 259.443 65.1808 257.715C62.4896 255.986 60.3521 253.521 59.0229 250.611H215.217C215.217 250.611 217.466 258.853 224.796 260.361Z" fill="url(#paint4_linear_161_445)"/>
<path d="M224.797 193.072C217.874 194.216 215.939 201.018 215.939 201.018H59.9927L61.1659 199.35C62.7263 197.39 64.709 195.808 66.9661 194.721C69.2233 193.634 71.6966 193.07 74.2018 193.072H224.797Z" fill="url(#paint5_linear_161_445)"/>
<path opacity="0.61" d="M310.202 209.763V243.674C310.204 246.659 309.405 249.589 307.888 252.159C306.371 254.73 304.192 256.845 301.577 258.286H232.694C231.318 258.286 229.956 258.016 228.685 257.49C227.414 256.964 226.259 256.193 225.286 255.22C224.313 254.248 223.542 253.093 223.015 251.823C222.489 250.552 222.218 249.19 222.218 247.814V206.67C222.217 205.294 222.487 203.932 223.014 202.66C223.54 201.389 224.312 200.234 225.285 199.261C226.257 198.288 227.413 197.516 228.684 196.99C229.955 196.464 231.318 196.193 232.694 196.194H303.235C305.392 197.739 307.149 199.775 308.361 202.135C309.572 204.495 310.204 207.11 310.202 209.763Z" fill="url(#paint6_linear_161_445)"/>
<path d="M310.202 209.763V243.674C310.202 244.299 310.168 244.924 310.1 245.545C310.071 245.817 310.032 246.084 309.988 246.35C309.807 247.512 309.498 248.65 309.067 249.744C308.966 250.02 308.854 250.287 308.728 250.553C308.187 251.762 307.504 252.901 306.692 253.947C306.479 254.218 306.256 254.49 306.018 254.752C304.753 256.186 303.251 257.391 301.577 258.315H242.593C241.103 258.317 239.63 258.001 238.273 257.386C236.916 256.771 235.706 255.873 234.725 254.752C234.498 254.494 234.285 254.226 234.085 253.947C233.346 252.924 232.802 251.774 232.48 250.553C232.408 250.292 232.349 250.02 232.301 249.744C232.18 249.113 232.12 248.471 232.122 247.829V206.67C232.12 205.937 232.198 205.205 232.354 204.489C232.403 204.217 232.47 203.948 232.553 203.684C232.911 202.455 233.496 201.304 234.279 200.29C234.491 200.009 234.719 199.74 234.962 199.486C235.939 198.44 237.121 197.607 238.434 197.038C239.746 196.469 241.162 196.177 242.593 196.179H303.235C304.534 197.11 305.692 198.224 306.672 199.486C306.876 199.748 307.075 200.014 307.264 200.29C307.994 201.347 308.596 202.486 309.058 203.684C309.164 203.951 309.266 204.222 309.348 204.489C309.722 205.589 309.972 206.727 310.095 207.882C310.129 208.149 310.153 208.42 310.168 208.692C310.192 209.031 310.202 209.404 310.202 209.763Z" fill="url(#paint7_linear_161_445)"/>
<path d="M307.264 200.305H234.279C234.491 200.024 234.719 199.755 234.962 199.5H306.668C306.876 199.762 307.075 200.029 307.264 200.305ZM309.348 204.489H232.354C232.403 204.217 232.47 203.948 232.553 203.684H309.058C309.164 203.951 309.266 204.222 309.348 204.489ZM310.168 208.677H232.117V207.868H310.095C310.129 208.134 310.153 208.406 310.168 208.677Z" fill="white"/>
<path d="M310.206 212.056H232.122V212.861H310.206V212.056Z" fill="white"/>
<path d="M310.206 216.24H232.122V217.045H310.206V216.24Z" fill="white"/>
<path d="M310.206 220.429H232.122V221.233H310.206V220.429Z" fill="white"/>
<path d="M310.206 224.617H232.122V225.417H310.206V224.617Z" fill="white"/>
<path d="M310.206 228.801H232.122V229.601H310.206V228.801Z" fill="white"/>
<path d="M310.206 232.989H232.122V233.789H310.206V232.989Z" fill="white"/>
<path d="M310.206 237.173H232.122V237.973H310.206V237.173Z" fill="white"/>
<path d="M310.206 241.362H232.122V242.166H310.206V241.362Z" fill="white"/>
<path d="M310.1 245.545C310.071 245.817 310.032 246.084 309.988 246.35H232.122V245.545H310.1ZM309.091 249.729C308.99 250.005 308.878 250.272 308.752 250.539H232.495C232.422 250.277 232.364 250.005 232.315 249.729H309.091ZM306.692 253.918C306.478 254.189 306.255 254.461 306.018 254.722H234.725C234.498 254.465 234.285 254.197 234.085 253.918H306.692Z" fill="white"/>
<path d="M213.433 185.252H263.124C261.017 186.305 258.692 186.85 256.337 186.842H71.5743C68.516 186.863 65.5259 185.939 63.0129 184.195C62.3016 183.704 61.6407 183.144 61.0398 182.523C60.8459 182.324 60.6568 182.116 60.4775 181.907C59.801 181.117 59.2246 180.245 58.7613 179.314C58.6595 179.11 58.5626 178.902 58.4753 178.698C58.1149 177.867 57.8545 176.997 57.6996 176.104C57.6657 175.901 57.6318 175.697 57.6075 175.484C57.5491 175.009 57.5199 174.532 57.5203 174.054V148.04C57.5203 147.759 57.5203 147.482 57.5494 147.211C57.5784 146.939 57.5833 146.799 57.6075 146.595C57.7154 145.71 57.9252 144.839 58.2329 144.002C58.3105 143.793 58.3929 143.59 58.4801 143.381C58.8757 142.459 59.3838 141.59 59.9927 140.792C60.1527 140.584 60.3175 140.375 60.4775 140.172C60.8354 139.754 61.2192 139.359 61.6264 138.989C64.359 136.542 67.9062 135.202 71.5743 135.232H256.337C259.241 135.228 262.082 136.071 264.515 137.656H213.433C212.655 137.654 211.88 137.749 211.126 137.937C209.576 138.307 208.154 139.083 207.005 140.186C206.799 140.38 206.606 140.587 206.428 140.807C205.779 141.567 205.285 142.446 204.974 143.396C204.905 143.599 204.848 143.806 204.804 144.016C204.673 144.564 204.608 145.125 204.61 145.689V177.234C204.612 177.722 204.662 178.21 204.76 178.688C204.799 178.896 204.851 179.102 204.915 179.304C205.192 180.248 205.65 181.129 206.263 181.898C206.431 182.113 206.61 182.318 206.801 182.513C207.634 183.375 208.636 184.055 209.744 184.511C210.911 185.003 212.166 185.256 213.433 185.252Z" fill="#68E1FD"/>
<path d="M270.386 148.229V174.102C270.386 174.252 270.386 174.403 270.386 174.548C270.386 174.694 270.386 174.849 270.357 174.994C270.328 175.14 270.333 175.29 270.318 175.435C270.304 175.581 270.279 175.707 270.265 175.838C270.25 175.969 270.231 176.046 270.211 176.148C270.206 176.2 270.196 176.252 270.182 176.303C270.158 176.444 270.129 176.589 270.095 176.73C270.061 176.87 270.051 176.914 270.022 177.006C269.993 177.098 269.979 177.185 269.95 177.277C269.921 177.37 269.896 177.471 269.867 177.568L269.765 177.864C269.765 177.946 269.717 178.024 269.688 178.102C269.659 178.179 269.61 178.31 269.567 178.412L269.436 178.727C269.415 178.786 269.389 178.842 269.358 178.897C269.328 178.978 269.292 179.057 269.252 179.134C269.223 179.202 269.184 179.27 269.15 179.338C269.116 179.406 269.048 179.546 268.99 179.643C268.932 179.74 268.825 179.958 268.733 180.128L268.583 180.37C268.447 180.593 268.306 180.807 268.156 181.015C268.078 181.127 268.001 181.228 267.923 181.33C267.768 181.539 267.603 181.737 267.439 181.936C267.274 182.135 267.07 182.353 266.871 182.552C266.474 182.958 266.051 183.338 265.606 183.691C265.597 183.703 265.585 183.713 265.572 183.72C265.427 183.837 265.281 183.943 265.131 184.055L264.646 184.389L264.161 184.7C264.006 184.797 263.851 184.884 263.677 184.976L263.119 185.272H213.433C212.167 185.276 210.913 185.027 209.744 184.54C208.637 184.086 207.635 183.409 206.801 182.552C206.61 182.357 206.431 182.152 206.263 181.936C205.649 181.173 205.191 180.297 204.915 179.357C204.851 179.157 204.799 178.953 204.76 178.746C204.662 178.268 204.612 177.781 204.61 177.292V145.868C204.608 145.308 204.673 144.75 204.804 144.205C204.848 143.997 204.905 143.791 204.974 143.589C205.286 142.645 205.78 141.77 206.428 141.015C206.606 140.796 206.799 140.588 207.005 140.395C208.157 139.298 209.578 138.525 211.125 138.155C211.881 137.971 212.656 137.878 213.433 137.879H264.515C264.738 138.024 264.961 138.174 265.175 138.334L265.422 138.519C265.759 138.769 266.083 139.038 266.391 139.323L266.658 139.575L266.852 139.769L267.114 140.041L267.375 140.332L267.429 140.395L267.468 140.443C267.623 140.627 267.778 140.821 267.923 141.015C268.001 141.112 268.074 141.214 268.146 141.311C268.154 141.326 268.163 141.339 268.175 141.35C268.305 141.537 268.431 141.726 268.554 141.917L268.762 142.256C268.888 142.47 269.009 142.693 269.121 142.911C269.174 143.027 269.232 143.134 269.286 143.245C269.339 143.357 269.392 143.478 269.436 143.589C269.479 143.701 269.528 143.793 269.567 143.9C269.605 144.006 269.649 144.103 269.683 144.205C269.717 144.307 269.756 144.409 269.79 144.511C269.937 144.93 270.055 145.359 270.144 145.795C270.159 145.851 270.17 145.908 270.178 145.965C270.178 146.067 270.216 146.169 270.236 146.27C270.255 146.372 270.289 146.615 270.313 146.784C270.338 146.954 270.362 147.191 270.371 147.4C270.371 147.507 270.371 147.618 270.371 147.73C270.371 147.841 270.386 148.059 270.386 148.229Z" fill="url(#paint8_linear_161_445)"/>
<path d="M209.744 184.515C208.648 184.78 207.517 185.026 206.35 185.252H74.6188C70.7251 185.275 66.8384 184.921 63.0129 184.195C62.3016 183.704 61.6407 183.144 61.0398 182.523C60.8459 182.324 60.6568 182.116 60.4775 181.907C59.801 181.116 59.2246 180.245 58.7613 179.314C58.6595 179.11 58.5626 178.902 58.4753 178.698C58.1149 177.867 57.8545 176.997 57.6996 176.104C57.6657 175.901 57.6318 175.697 57.6075 175.484C57.5491 175.009 57.5199 174.532 57.5203 174.054V148.04C57.5203 147.759 57.5203 147.482 57.5494 147.211C57.5784 146.939 57.5833 146.799 57.6075 146.595C57.7154 145.709 57.9252 144.839 58.2329 144.002C58.3105 143.793 58.3929 143.59 58.4801 143.381C58.8757 142.459 59.3838 141.59 59.9927 140.792C60.1527 140.584 60.3175 140.375 60.4775 140.172C60.8354 139.754 61.2192 139.359 61.6264 138.989C65.8949 138.068 70.2521 137.621 74.6188 137.656H210.04L211.126 137.937C209.576 138.307 208.154 139.083 207.005 140.186C206.799 140.38 206.606 140.587 206.428 140.807C205.779 141.567 205.285 142.446 204.974 143.396C204.905 143.599 204.848 143.806 204.804 144.016C204.673 144.564 204.608 145.125 204.61 145.689V177.234C204.612 177.722 204.662 178.21 204.76 178.688C204.799 178.896 204.851 179.102 204.915 179.304C205.192 180.248 205.65 181.129 206.263 181.898C206.431 182.113 206.61 182.318 206.801 182.513C207.633 183.377 208.635 184.059 209.744 184.515Z" fill="#68E1FD"/>
<path d="M209.744 184.515C208.648 184.78 207.517 185.026 206.35 185.252H74.6188C70.7251 185.275 66.8384 184.921 63.0129 184.195C62.3016 183.704 61.6407 183.144 61.0398 182.523C60.8459 182.324 60.6568 182.116 60.4775 181.907C59.801 181.116 59.2246 180.245 58.7613 179.314C58.6595 179.11 58.5626 178.902 58.4753 178.698C58.1149 177.867 57.8545 176.997 57.6996 176.104C57.6657 175.901 57.6318 175.697 57.6075 175.484C57.5491 175.009 57.5199 174.532 57.5203 174.054V148.04C57.5203 147.759 57.5203 147.482 57.5494 147.211C57.5784 146.939 57.5833 146.799 57.6075 146.595C57.7154 145.709 57.9252 144.839 58.2329 144.002C58.3105 143.793 58.3929 143.59 58.4801 143.381C58.8757 142.459 59.3838 141.59 59.9927 140.792C60.1527 140.584 60.3175 140.375 60.4775 140.172C60.8354 139.754 61.2192 139.359 61.6264 138.989C65.8949 138.068 70.2521 137.621 74.6188 137.656H210.04L211.126 137.937C209.576 138.307 208.154 139.083 207.005 140.186C206.799 140.38 206.606 140.587 206.428 140.807C205.779 141.567 205.285 142.446 204.974 143.396C204.905 143.599 204.848 143.806 204.804 144.016C204.673 144.564 204.608 145.125 204.61 145.689V177.234C204.612 177.722 204.662 178.21 204.76 178.688C204.799 178.896 204.851 179.102 204.915 179.304C205.192 180.248 205.65 181.129 206.263 181.898C206.431 182.113 206.61 182.318 206.801 182.513C207.633 183.377 208.635 184.059 209.744 184.515Z" fill="url(#paint9_linear_161_445)"/>
<path d="M266.862 187.182C266.472 187.633 266.049 188.054 265.596 188.442C266.045 188.05 266.468 187.629 266.862 187.182Z" fill="url(#paint10_linear_161_445)"/>
<path d="M268.132 141.67C268.059 141.558 267.986 141.447 267.909 141.34C267.763 141.127 267.608 140.913 267.453 140.71C267.696 141.02 267.923 141.34 268.132 141.67Z" fill="url(#paint11_linear_161_445)"/>
<path d="M269.669 144.864C269.707 144.976 269.741 145.087 269.775 145.199C269.712 144.971 269.635 144.748 269.552 144.525C269.596 144.637 269.635 144.748 269.669 144.864Z" fill="url(#paint12_linear_161_445)"/>
<path d="M270.386 148.229V174.102C270.386 174.349 270.386 174.587 270.386 174.839C270.386 175.091 270.362 175.212 270.338 175.401C270.25 176.2 270.078 176.986 269.824 177.748C269.765 177.937 269.702 178.121 269.63 178.3C268.407 181.342 266.097 183.82 263.148 185.252H205.09C200.61 185.252 196.911 182.227 196.364 178.31C196.329 178.124 196.31 177.936 196.305 177.748C196.288 177.587 196.28 177.425 196.281 177.263V145.868C196.281 141.452 200.227 137.879 205.104 137.879H264.515C268.074 140.186 270.386 143.958 270.386 148.229Z" fill="#68E1FD"/>
<path d="M267.909 140.792H206.428C206.606 140.573 206.799 140.365 207.005 140.172H267.4C267.584 140.375 267.749 140.564 267.909 140.792ZM269.668 144.002H204.804C204.848 143.792 204.904 143.584 204.973 143.381H269.426C269.513 143.585 269.596 143.793 269.668 144.002ZM270.362 147.211H204.61V146.59H270.308C270.308 146.794 270.347 147.002 270.362 147.211Z" fill="white"/>
<path d="M270.391 149.8H204.61V150.42H270.391V149.8Z" fill="white"/>
<path d="M270.391 153.009H204.61V153.629H270.391V153.009Z" fill="white"/>
<path d="M270.391 156.218H204.61V156.839H270.391V156.218Z" fill="white"/>
<path d="M270.391 159.432H204.61V160.048H270.391V159.432Z" fill="white"/>
<path d="M270.391 162.642H204.61V163.257H270.391V162.642Z" fill="white"/>
<path d="M270.391 165.851H204.61V166.467H270.391V165.851Z" fill="white"/>
<path d="M270.391 169.06H204.61V169.676H270.391V169.06Z" fill="white"/>
<path d="M270.391 172.27H204.61V172.89H270.391V172.27Z" fill="white"/>
<path d="M270.396 175.469C270.385 175.676 270.385 175.883 270.396 176.09H204.61V175.469H270.396ZM269.431 178.688C269.431 178.897 269.164 179.1 269.145 179.309H204.915C204.851 179.105 204.799 178.898 204.76 178.688H269.431ZM208.789 140.792H59.9927C60.1526 140.584 60.3175 140.375 60.4774 140.172H207.606C208.013 140.375 208.406 140.564 208.789 140.792ZM207.451 144.002H58.2329C58.3104 143.793 58.3929 143.59 58.4801 143.381H206.864C207.071 143.577 207.267 143.784 207.451 144.002ZM209.099 147.211H57.5493C57.5493 147.002 57.5833 146.799 57.6075 146.595H208.954C209.014 146.797 209.063 147.003 209.099 147.211Z" fill="white"/>
<path d="M209.167 149.8H57.5154V150.415H209.167V149.8Z" fill="white"/>
<path d="M209.167 153.009H57.5154V153.625H209.167V153.009Z" fill="white"/>
<path d="M209.167 156.218H57.5154V156.839H209.167V156.218Z" fill="white"/>
<path d="M209.167 159.432H57.5154V160.048H209.167V159.432Z" fill="white"/>
<path d="M209.167 162.647H57.5154V163.257H209.167V162.647Z" fill="white"/>
<path d="M209.167 165.851H57.5154V166.462H209.167V165.851Z" fill="white"/>
<path d="M209.167 169.06H57.5154V169.676H209.167V169.06Z" fill="white"/>
<path d="M209.167 172.27H57.5154V172.89H209.167V172.27Z" fill="white"/>
<path d="M208.963 175.469C208.899 175.68 208.823 175.887 208.735 176.09H57.6995C57.6656 175.886 57.6317 175.683 57.6074 175.469H208.963ZM206.883 178.693C206.667 178.91 206.439 179.116 206.2 179.309H58.7612C58.6594 179.105 58.5625 178.897 58.4752 178.693H206.883Z" fill="white"/>
<path opacity="0.2" d="M214.456 129.414C212.27 132.042 209.443 134.684 208.323 135.271C201.953 138.625 194.575 141.219 190.837 147.351C186.105 155.108 189.165 165.255 186.993 174.088C186.595 175.697 185.979 177.34 184.734 178.451C183.488 179.561 181.485 179.939 180.162 178.935C178.998 178.058 178.708 176.468 178.489 175.028C176.579 161.437 176.507 147.65 178.276 134.039C171.004 137.287 166.084 144.142 162.201 151.075C158.317 158.007 155.06 165.439 149.649 171.261C148.113 172.91 146.091 174.524 143.861 174.204C141.18 170.81 142.586 165.851 144.108 161.788C147.158 153.629 150.217 145.451 154.143 137.67C155.414 135.149 156.824 132.619 158.957 130.767C159.541 130.262 160.171 129.812 160.838 129.424L214.456 129.414Z" fill="#3F3D56"/>
<path d="M267.429 181.902C267.264 182.12 267.08 182.29 266.895 182.518H61.0397C60.8457 182.319 60.6567 182.111 60.4773 181.902H267.429Z" fill="white"/>
<path d="M105.577 260.361H80.7028C72.728 258.354 68.8643 249.729 68.8643 249.729C68.8643 249.729 68.1419 207.553 68.8643 202.22C69.5866 196.887 81.6675 193.057 81.6675 193.057H105.577C97.6025 194.201 91.8093 201.977 91.8093 201.977C91.8093 201.977 91.3245 248.59 91.8093 251.726C92.2941 254.863 105.577 260.361 105.577 260.361Z" fill="url(#paint13_linear_161_445)"/>
<path d="M105.577 260.361H97.6025C89.6374 258.354 85.7736 249.729 85.7736 249.729C85.7736 249.729 85.0464 207.553 85.7736 202.22C86.5008 196.887 98.572 193.057 98.572 193.057H105.577C97.6025 194.201 91.8092 201.977 91.8092 201.977C91.8092 201.977 91.3245 248.59 91.8092 251.726C92.294 254.863 105.577 260.361 105.577 260.361Z" fill="url(#paint14_linear_161_445)"/>
<path d="M140.22 159.883L137.903 163.907L143.284 166.249L145.509 162.419L140.22 159.883Z" fill="url(#paint15_linear_161_445)"/>
<path d="M176.4 170.689L176.148 175.173L182.014 174.834L182.261 170.689H176.4Z" fill="url(#paint16_linear_161_445)"/>
<path d="M138.96 163.015C138.841 162.771 138.676 162.552 138.475 162.37C138.236 162.213 137.964 162.113 137.68 162.079L128.367 160.208C128.031 160.125 127.685 160.088 127.339 160.097C126.447 160.155 125.715 160.809 125.129 161.483C124.792 161.801 124.576 162.226 124.518 162.685C124.552 162.974 124.646 163.251 124.792 163.502C124.939 163.752 125.136 163.969 125.371 164.14C126.025 164.747 126.713 165.316 127.431 165.846C128.811 166.814 130.247 167.699 131.731 168.498C132.73 169.06 133.729 169.623 134.752 170.137C136.434 170.98 138.179 171.688 139.934 172.376C139.992 172.412 140.056 172.437 140.124 172.448C140.191 172.459 140.26 172.457 140.326 172.441C140.392 172.425 140.455 172.396 140.51 172.356C140.565 172.316 140.611 172.265 140.647 172.207C141.916 170.883 142.917 169.325 143.594 167.621C143.764 167.199 144.079 166.273 143.594 165.924C143.425 165.803 142.945 165.822 142.731 165.773C142.413 165.697 142.102 165.594 141.801 165.468C140.619 164.97 139.624 164.112 138.96 163.015ZM176.744 173.137C176.519 172.987 176.267 172.88 176.002 172.822C175.717 172.806 175.432 172.856 175.169 172.968L166.181 176.036C165.848 176.133 165.531 176.273 165.235 176.453C164.493 176.938 164.188 177.908 164.018 178.766C163.889 179.209 163.918 179.684 164.101 180.109C164.273 180.339 164.492 180.53 164.742 180.671C164.992 180.812 165.269 180.9 165.555 180.928C166.425 181.124 167.306 181.27 168.192 181.364C169.87 181.51 171.556 181.553 173.239 181.495C174.388 181.495 175.532 181.466 176.676 181.393C178.557 181.277 180.424 181.01 182.28 180.724C182.415 180.73 182.546 180.682 182.646 180.591C182.746 180.5 182.806 180.374 182.814 180.24C183.244 178.456 183.328 176.606 183.061 174.791C182.993 174.34 182.785 173.39 182.198 173.336C181.99 173.312 181.587 173.574 181.379 173.637C181.062 173.734 180.738 173.802 180.409 173.84C179.144 174 177.861 173.754 176.744 173.137Z" fill="#3F3D56"/>
<path d="M213.132 112.665C213.132 112.665 211.61 126.913 198.477 129.424C189.586 131.126 178.712 130.52 172.624 129.952C171.184 129.819 169.735 130.087 168.438 130.726C167.141 131.366 166.046 132.351 165.274 133.574L146.367 163.689L140.889 161.042H140.846L138.906 160.111L154.652 123.374C155.577 121.092 156.997 119.043 158.81 117.377C160.622 115.71 162.782 114.467 165.134 113.736L183.221 108.137L187.448 106.828C187.448 106.828 204.377 105.121 213.132 112.665Z" fill="#3F3D56"/>
<path opacity="0.24" d="M183.235 108.118L184.423 110.634C184.423 110.634 163.577 116.742 161.017 119.714C157.6 123.689 140.894 161.042 140.894 161.042H140.85L138.911 160.111L154.657 123.374C155.582 121.092 157.002 119.043 158.814 117.377C160.627 115.71 162.787 114.467 165.138 113.736L183.235 108.118Z" fill="white"/>
<path d="M190.638 110.192C190.638 110.192 173.894 126.506 173.351 135.232C172.808 143.958 175.149 171.319 175.149 171.319H183.274C183.274 171.319 182.872 138.102 186.183 137.869C189.494 137.636 204.503 127.989 206.913 125.221C209.322 122.453 213.166 112.655 213.166 112.655L190.638 110.192Z" fill="#3F3D56"/>
<path d="M213.132 112.665C213.132 112.665 199.709 119.515 185.771 111.501C184.555 110.803 183.387 110.024 182.276 109.169C182.276 109.169 188.151 98.6738 183.473 83.4272C181.471 76.9068 181.427 64.4574 191.341 62.6831H191.39C201.25 60.933 200.693 63.3667 200.693 63.3667L205.153 67.7007C213.729 74.6768 214.669 85.3276 213.132 112.665Z" fill="#68E1FD"/>
<path opacity="0.24" d="M191.39 62.6735C190.976 63.5703 190.336 64.3439 189.533 64.918C189.533 64.918 183.638 67.531 184.816 76.1748C185.994 84.8186 188.151 101.442 188.151 101.442L185.771 111.501C184.555 110.803 183.387 110.024 182.276 109.17C182.276 109.17 188.151 98.6739 183.473 83.4273C181.471 76.9069 181.427 64.4575 191.341 62.6832L191.39 62.6735Z" fill="white"/>
<path d="M200.256 62.1208C199.721 62.7603 199.061 63.2845 198.317 63.6617C197.573 64.039 196.76 64.2616 195.928 64.3159C195.096 64.3703 194.261 64.2554 193.474 63.9781C192.688 63.7008 191.965 63.2669 191.351 62.7026C191.351 62.7026 184.079 69.9744 191.428 70.8519C195.307 71.3367 200.082 66.6439 201.464 63.9921L200.256 62.1208Z" fill="#3F3D56"/>
<path d="M202.438 55.3096C202.409 55.4065 201.042 59.5903 200.014 62.5814C199.251 64.9129 197.633 66.8687 195.486 68.0547C194.226 68.815 192.824 69.3099 191.365 69.509C191.017 69.5408 190.666 69.4758 190.352 69.321C190.038 69.1663 189.773 68.9279 189.586 68.632C189.399 68.3362 189.298 67.9945 189.292 67.6445C189.287 67.2946 189.379 66.95 189.557 66.6488C189.896 66.0525 190.265 65.3641 190.604 64.6321C191.312 63.1098 191.903 61.4179 191.807 60.0799C191.807 60.0314 191.807 59.9781 191.807 59.9345C191.719 59.2364 192.175 58.6207 192.941 58.0826C194.022 57.3311 195.724 56.7397 197.386 56.2937C199.051 55.8719 200.737 55.5433 202.438 55.3096Z" fill="url(#paint17_linear_161_445)"/>
<path d="M191.661 64.5739C191.328 64.641 190.987 64.6655 190.648 64.6466C191.356 63.1244 191.947 61.4324 191.85 60.0944L192.975 58.0971L193.814 56.6136L197.42 56.3082L201.066 56.0028C198.662 61.6894 194.623 64.0455 191.661 64.5739Z" fill="url(#paint18_linear_161_445)"/>
<path d="M198.434 36.1798C197.114 35.9033 195.752 35.9026 194.433 36.1778C193.114 36.453 191.865 36.9982 190.767 37.779C189.668 38.5598 188.743 39.5594 188.049 40.715C187.355 41.8706 186.908 43.1572 186.736 44.4939C185.99 48.4119 185.959 52.4324 186.644 56.3616C188.306 62.4457 197.241 60.2399 199.054 58.3928C200.867 56.5458 208.154 48.0329 206.961 44.7218C206.2 42.4724 203.534 37.3336 198.434 36.1798Z" fill="url(#paint19_linear_161_445)"/>
<path d="M191.235 30.246L192.611 31.4871C191.665 31.2081 190.666 31.1581 189.697 31.341C188.728 31.5239 187.816 31.9345 187.036 32.5391C185.177 33.6035 183.812 35.3573 183.236 37.4209L186.295 36.8731C186.295 36.8731 185.18 40.1648 190.25 41.8082C195.321 43.4517 200.703 45.1339 200.703 45.1339L199.617 42.2251C199.617 42.2251 202.462 44.3679 202.7 45.7059C202.691 47.7352 202.529 49.7609 202.215 51.7658C202.215 51.7658 204.387 48.8086 204.717 49.6715C205.046 50.5344 203.156 53.2347 202.293 53.7146C201.43 54.1946 201.022 56.187 200.916 56.3325C200.809 56.4779 204.794 54.6648 205.187 53.7728C205.579 52.8808 211.353 44.3921 209.778 41.8519L211.082 42.0991C210.461 41.3856 209.689 40.8192 208.823 40.4411C208.823 40.4411 203.408 27.124 191.235 30.246Z" fill="#3F3D56"/>
<path d="M189.315 101.83C188.583 101.098 187.86 100.225 186.838 100.051C186.479 100.904 187.211 101.781 187.521 102.649C187.568 102.746 187.592 102.852 187.592 102.959C187.592 103.067 187.568 103.173 187.521 103.27C187.376 103.502 187.036 103.517 186.77 103.498C185.476 103.405 184.207 103.1 183.013 102.596C181.907 102.111 180.846 101.486 179.648 101.364C179.52 101.339 179.387 101.356 179.27 101.413C178.979 101.597 179.149 102.043 179.357 102.315C179.802 102.901 180.308 103.439 180.865 103.919C180.02 103.546 179.119 103.315 178.199 103.236C177.942 103.236 177.593 103.289 177.598 103.546C177.614 103.652 177.665 103.749 177.743 103.822C178.424 104.602 179.247 105.247 180.167 105.723C179.498 105.581 178.814 105.524 178.131 105.553C177.835 105.553 177.442 105.708 177.486 105.999C177.508 106.094 177.555 106.181 177.622 106.251C178.441 107.242 179.55 107.952 180.792 108.282L178.853 108.326C178.731 108.32 178.609 108.345 178.499 108.399C178.15 108.622 178.456 109.17 178.795 109.407C180.288 110.449 182.188 110.634 184.016 110.764C187.511 111.017 191.191 111.152 194.342 109.611C194.57 109.494 194.827 109.339 194.871 109.087C194.88 108.955 194.86 108.823 194.812 108.699C194.429 107.424 194.235 105.112 193.077 104.336C192.514 103.963 191.821 103.75 191.244 103.367C190.667 102.984 189.974 102.159 189.315 101.83Z" fill="url(#paint20_linear_161_445)"/>
<path d="M215.978 99.1247C214.882 109.892 195.346 111.21 195.346 111.21L193.334 104.293L192.98 103.076C192.98 103.076 203.432 101.757 205.429 98.4848C207.426 95.2125 199.204 84.2417 204.173 78.1237C209.143 72.0056 210.272 73.8866 210.272 73.8866C210.272 73.8866 217.064 88.3575 215.978 99.1247Z" fill="#68E1FD"/>
<path d="M163.563 83.0298C163.563 83.0298 163.563 83.4322 163.48 84.0381C163.315 85.5458 162.845 88.3043 161.594 89.3078C159.835 90.7185 159.592 88.663 159.631 87.8534C159.67 87.4089 159.743 86.9681 159.849 86.5348C160.256 84.7799 162.414 83.5776 163.243 83.1801L163.563 83.0298Z" fill="url(#paint21_linear_161_445)"/>
<path d="M163.48 84.038C163.316 85.5457 162.845 88.3042 161.595 89.3077C161.052 88.915 160.354 88.3914 159.631 87.8533C158.662 87.1261 157.629 86.3602 156.897 85.8269C156.246 85.39 155.653 84.8719 155.132 84.2853C154.679 83.688 154.301 83.0366 154.008 82.3461L152.505 79.0786C152.02 78.0073 151.535 76.5917 152.398 75.7627C152.616 75.5494 154.604 75.1616 154.735 74.8804C155.098 74.0756 152.796 72.374 152.941 71.4869C153.013 71.2452 153.168 71.0364 153.377 70.8965C153.587 70.7567 153.839 70.6945 154.09 70.7209C154.575 70.7451 155.952 72.0104 156.383 72.2674C157.236 72.7522 156.519 73.4406 157.353 73.9447C158.435 74.5004 159.418 75.2309 160.261 76.1069C161.202 77.2074 161.677 78.6181 162.128 79.9852C162.458 80.9887 162.899 82.0746 163.238 83.1557C163.33 83.466 163.413 83.752 163.48 84.038Z" fill="url(#paint22_linear_161_445)"/>
<path d="M156.349 76.3106L153.116 60.9768L151.918 55.3096L170.709 60.3465L176.162 97.0305L158.7 91.7075L156.349 76.3106Z" fill="#68E1FD"/>
<path d="M160.261 76.1263L152.825 59.6047L158.7 91.7074L176.162 97.0304L174.291 84.4501L160.261 76.1263Z" fill="url(#paint23_linear_161_445)"/>
<path d="M157.42 82.9231C158.012 82.6274 159.224 82.0893 159.529 81.5027C159.602 81.3621 159.709 81.1779 159.616 81.0518C159.195 80.4701 157.459 81.2118 156.965 81.0518C157.304 80.4943 160.329 78.8024 158.904 78.4194C158.598 78.337 156.703 79.2969 156.397 79.2096C156.635 79.0157 158.584 77.6292 158.918 77.2705C159.015 77.1636 159.072 77.0271 159.081 76.8833C159.09 76.7396 159.05 76.5971 158.967 76.4793C158.884 76.3615 158.763 76.2753 158.625 76.235C158.487 76.1946 158.339 76.2025 158.206 76.2573C157.174 76.7313 156.115 77.1457 155.035 77.4983C155.244 77.1541 158.06 75.5592 158.172 75.1519C158.23 75.0053 158.24 74.8442 158.201 74.6914C158.161 74.6056 158.104 74.529 158.033 74.4664C157.962 74.4038 157.879 74.3566 157.789 74.3278C157.003 74.0224 156.121 74.3278 155.336 74.6429L153.474 75.3798C152.878 75.6125 152.219 75.9131 152.02 76.5142C151.933 76.8184 151.918 77.1388 151.976 77.4498C152.208 79.404 152.908 81.2734 154.017 82.8989C154.57 83.7036 156.315 85.6476 157.319 85.8367C158.211 86.0063 156.591 83.3594 157.42 82.9231Z" fill="url(#paint24_linear_161_445)"/>
<path opacity="0.24" d="M176.861 132.619C176.861 132.619 183.27 117.935 190.677 113.756L188.151 112.733C188.151 112.733 175.145 126.564 173.608 133.68C172.071 140.797 175.154 171.334 175.154 171.334H177.287C177.287 171.334 173.763 135.615 176.861 132.619ZM205.996 100.812C201.871 102.509 194.846 103.987 193.334 104.297L193.043 104.356L192.98 103.081C192.98 103.081 203.432 101.762 205.429 98.4897C207.427 95.2173 199.205 84.2466 204.174 78.1285C204.174 78.1285 203.543 83.5388 205.177 87.5383C206.811 91.5378 210.631 98.9017 205.996 100.812Z" fill="white"/>
</g>
<defs>
<linearGradient id="paint0_linear_161_445" x1="203.747" y1="343.715" x2="125.221" y2="-91.4506" gradientUnits="userSpaceOnUse">
<stop offset="0.02" stop-color="#68E1FD"/>
<stop offset="1" stop-color="white" stop-opacity="0"/>
</linearGradient>
<linearGradient id="paint1_linear_161_445" x1="285.157" y1="127.519" x2="315.268" y2="173.404" gradientUnits="userSpaceOnUse">
<stop stop-color="white" stop-opacity="0"/>
<stop offset="0.99" stop-color="white"/>
</linearGradient>
<linearGradient id="paint2_linear_161_445" x1="75069" y1="21456.3" x2="75101.6" y2="11436.4" gradientUnits="userSpaceOnUse">
<stop stop-color="white" stop-opacity="0"/>
<stop offset="0.99" stop-color="white"/>
</linearGradient>
<linearGradient id="paint3_linear_161_445" x1="199.854" y1="102.024" x2="159.5" y2="199.093" gradientUnits="userSpaceOnUse">
<stop offset="0.17" stop-color="#00272E"/>
<stop offset="1" stop-color="#69B9EB" stop-opacity="0"/>
</linearGradient>
<linearGradient id="paint4_linear_161_445" x1="48388.6" y1="4657.68" x2="48391" y2="5843.43" gradientUnits="userSpaceOnUse">
<stop offset="0.17" stop-color="#00272E"/>
<stop offset="1" stop-color="#69B9EB" stop-opacity="0"/>
</linearGradient>
<linearGradient id="paint5_linear_161_445" x1="48980.4" y1="3254.32" x2="48978.3" y2="3785.28" gradientUnits="userSpaceOnUse">
<stop stop-color="white" stop-opacity="0"/>
<stop offset="0.99" stop-color="white"/>
</linearGradient>
<linearGradient id="paint6_linear_161_445" x1="180.86" y1="226.28" x2="262.683" y2="227.182" gradientUnits="userSpaceOnUse">
<stop offset="0.18" stop-color="#00272E"/>
<stop offset="1" stop-color="#69B9EB" stop-opacity="0"/>
</linearGradient>
<linearGradient id="paint7_linear_161_445" x1="321.284" y1="231.249" x2="199.878" y2="221.238" gradientUnits="userSpaceOnUse">
<stop stop-color="#68E1FD"/>
<stop offset="1" stop-color="white"/>
</linearGradient>
<linearGradient id="paint8_linear_161_445" x1="37099.8" y1="16196.5" x2="27969.8" y2="15152.3" gradientUnits="userSpaceOnUse">
<stop stop-color="#68E1FD"/>
<stop offset="1" stop-color="white"/>
</linearGradient>
<linearGradient id="paint9_linear_161_445" x1="65843.6" y1="15991.6" x2="8816.09" y2="15991.6" gradientUnits="userSpaceOnUse">
<stop stop-color="white" stop-opacity="0"/>
<stop offset="0.99" stop-color="white"/>
</linearGradient>
<linearGradient id="paint10_linear_161_445" x1="265.596" y1="187.812" x2="266.862" y2="187.812" gradientUnits="userSpaceOnUse">
<stop stop-color="#68E1FD"/>
<stop offset="1" stop-color="#69B9EB"/>
</linearGradient>
<linearGradient id="paint11_linear_161_445" x1="642.855" y1="420.31" x2="643.805" y2="420.31" gradientUnits="userSpaceOnUse">
<stop stop-color="#68E1FD"/>
<stop offset="1" stop-color="#69B9EB"/>
</linearGradient>
<linearGradient id="paint12_linear_161_445" x1="393.874" y1="345.917" x2="393.976" y2="345.917" gradientUnits="userSpaceOnUse">
<stop stop-color="#68E1FD"/>
<stop offset="1" stop-color="#69B9EB"/>
</linearGradient>
<linearGradient id="paint13_linear_161_445" x1="6243.98" y1="38297.4" x2="10209" y2="24984.4" gradientUnits="userSpaceOnUse">
<stop stop-color="white" stop-opacity="0"/>
<stop offset="0.99" stop-color="white"/>
</linearGradient>
<linearGradient id="paint14_linear_161_445" x1="98.5963" y1="195.011" x2="91.1111" y2="287.746" gradientUnits="userSpaceOnUse">
<stop offset="0.02" stop-color="#68E1FD"/>
<stop offset="1" stop-color="white"/>
</linearGradient>
<linearGradient id="paint15_linear_161_445" x1="146.348" y1="163.446" x2="135.159" y2="162.521" gradientUnits="userSpaceOnUse">
<stop stop-color="#ECC4D7"/>
<stop offset="0.42" stop-color="#EFD4D1"/>
<stop offset="1" stop-color="#F2EAC9"/>
</linearGradient>
<linearGradient id="paint16_linear_161_445" x1="4220.08" y1="-4620.99" x2="4089.76" y2="-4572.39" gradientUnits="userSpaceOnUse">
<stop stop-color="#ECC4D7"/>
<stop offset="0.42" stop-color="#EFD4D1"/>
<stop offset="1" stop-color="#F2EAC9"/>
</linearGradient>
<linearGradient id="paint17_linear_161_445" x1="634.998" y1="11350.3" x2="884.383" y2="11417.1" gradientUnits="userSpaceOnUse">
<stop stop-color="#ECC4D7"/>
<stop offset="0.42" stop-color="#EFD4D1"/>
<stop offset="1" stop-color="#F2EAC9"/>
</linearGradient>
<linearGradient id="paint18_linear_161_445" x1="1265.2" y1="6892.32" x2="862.917" y2="7346.69" gradientUnits="userSpaceOnUse">
<stop stop-color="#ECC4D7"/>
<stop offset="0.42" stop-color="#EFD4D1"/>
<stop offset="1" stop-color="#F2EAC9"/>
</linearGradient>
<linearGradient id="paint19_linear_161_445" x1="271.456" y1="18782.2" x2="1112.67" y2="19007.6" gradientUnits="userSpaceOnUse">
<stop stop-color="#ECC4D7"/>
<stop offset="0.42" stop-color="#EFD4D1"/>
<stop offset="1" stop-color="#F2EAC9"/>
</linearGradient>
<linearGradient id="paint20_linear_161_445" x1="6568.04" y1="2465.86" x2="7191.48" y2="2465.86" gradientUnits="userSpaceOnUse">
<stop stop-color="#ECC4D7"/>
<stop offset="0.42" stop-color="#EFD4D1"/>
<stop offset="1" stop-color="#F2EAC9"/>
</linearGradient>
<linearGradient id="paint21_linear_161_445" x1="159.631" y1="86.4088" x2="163.563" y2="86.4088" gradientUnits="userSpaceOnUse">
<stop stop-color="#183866"/>
<stop offset="1" stop-color="#1A7FC1"/>
</linearGradient>
<linearGradient id="paint22_linear_161_445" x1="3790" y1="3140.74" x2="4065.63" y2="3140.74" gradientUnits="userSpaceOnUse">
<stop stop-color="#ECC4D7"/>
<stop offset="0.42" stop-color="#EFD4D1"/>
<stop offset="1" stop-color="#F2EAC9"/>
</linearGradient>
<linearGradient id="paint23_linear_161_445" x1="7786.36" y1="5379.29" x2="10141.1" y2="8929.98" gradientUnits="userSpaceOnUse">
<stop stop-color="white" stop-opacity="0"/>
<stop offset="0.99" stop-color="white"/>
</linearGradient>
<linearGradient id="paint24_linear_161_445" x1="2579.31" y1="1996.57" x2="2702.37" y2="1996.57" gradientUnits="userSpaceOnUse">
<stop stop-color="#ECC4D7"/>
<stop offset="0.42" stop-color="#EFD4D1"/>
<stop offset="1" stop-color="#F2EAC9"/>
</linearGradient>
<clipPath id="clip0_161_445">
<rect width="392" height="289.724" fill="white"/>
</clipPath>
</defs>
</svg>
