<svg width="121" height="172" viewBox="0 0 121 172" fill="none" xmlns="http://www.w3.org/2000/svg">
<path d="M-17.235 24.3413L94.9236 63.7326C95.6541 63.9891 96.0146 64.3111 96.2445 64.5905C96.5224 64.9284 96.7711 65.4194 96.8814 66.028C96.9917 66.6366 96.9312 67.1836 96.7896 67.5976C96.6724 67.9399 96.4478 68.3679 95.8539 68.8646L2.60551 146.834C2.01156 147.331 1.55055 147.476 1.19291 147.531C0.760398 147.597 0.211246 147.56 -0.368169 147.343C-0.947571 147.127 -1.38686 146.795 -1.6702 146.462C-1.90451 146.186 -2.15751 145.775 -2.28067 145.01L-21.1909 27.6491C-21.5528 25.4033 -19.3812 23.5875 -17.235 24.3413Z" stroke="#FF6D00" stroke-width="48"/>
</svg>
