<svg width="28" height="28" viewBox="0 0 28 28" fill="none" xmlns="http://www.w3.org/2000/svg">
<path d="M12.3325 1.18119L12.3215 1.16472L12.3075 1.15071C12.1622 1.00544 12.0053 0.896914 11.8245 0.841304C11.6425 0.785292 11.4533 0.788186 11.2526 0.838262C5.10857 2.33068 0.8 7.60098 0.8 13.8431C0.8 21.227 6.86464 27.2 14.33 27.2C20.0389 27.2 25.2217 23.5999 27.1553 18.3264L27.1554 18.3265L27.1573 18.3208C27.2701 17.9824 27.1543 17.5713 26.9608 17.2811L26.9498 17.2646L26.9358 17.2506C26.7906 17.1053 26.6336 16.9968 26.4529 16.9412C26.2721 16.8856 26.0843 16.888 25.8852 16.9371C25.0346 17.1069 24.0975 17.192 23.2455 17.192C16.9477 17.192 11.8467 12.1717 11.8467 5.96629C11.8467 4.69418 12.1012 3.4186 12.5275 2.22499L12.5276 2.225L12.5289 2.22096C12.6417 1.88255 12.526 1.47145 12.3325 1.18119ZM9.62978 5.94818L9.62896 5.95722V5.96629C9.62896 13.3502 15.6936 19.3232 23.159 19.3232H23.1651C23.5515 19.3232 23.8993 19.3232 24.2748 19.2856C22.3433 22.8288 18.539 25.0688 14.33 25.0688C8.03218 25.0688 2.93117 20.0485 2.93117 13.8431C2.93117 9.28804 5.75596 5.21458 9.91321 3.51349C9.78049 4.2904 9.70497 5.12112 9.63036 5.9419L9.62978 5.94818Z" fill="#212121" stroke="#212121" stroke-width="0.4"/>
</svg>
